<svg xmlns="http://www.w3.org/2000/svg" viewBox="0 0 512.0039 511.89">
  <title>step__03</title>
  <path d="M509.502,25.744L486.214,2.457a8.7827,8.7827,0,0,0-12.066,0L404.277,72.328a8.5246,8.5246,0,0,0,0,12.066l23.287,23.287a8.5294,8.5294,0,0,0,12.066,0l69.871-69.871A8.5236,8.5236,0,0,0,509.502,25.744ZM433.598,89.582L422.377,78.361l57.805-57.805,11.221,11.221Z" transform="translate(0 -0.057)" style="fill: #fff"/>
  <path d="M445.033,101.025L410.934,66.926a25.6172,25.6172,0,0,0-36.198,0l-11.23,11.221a8.5294,8.5294,0,0,0,0,12.066l58.232,58.231a8.54,8.54,0,0,0,12.075,0l11.221-11.221A25.6181,25.6181,0,0,0,445.033,101.025Zm-12.075,24.124-5.188,5.188L381.613,84.172l5.188-5.188a8.5546,8.5546,0,0,1,12.066,0l34.091,34.099A8.5391,8.5391,0,0,1,432.958,125.149Z" transform="translate(0 -0.057)" style="fill: #fff"/>
  <path d="M438.155,140.722L371.22,73.787a68.2414,68.2414,0,0,0-96.521,0l-50.935,50.935a8.5294,8.5294,0,0,0,0,12.066l151.39,151.398a8.5294,8.5294,0,0,0,12.066,0l50.935-50.935A68.3448,68.3448,0,0,0,438.155,140.722Zm-12.066,84.463-44.902,44.902L241.862,130.755l44.902-44.894a51.1838,51.1838,0,0,1,72.388,0l66.935,66.935A51.2569,51.2569,0,0,1,426.089,225.185Z" transform="translate(0 -0.057)" style="fill: #fff"/>
  <path d="M369.76,118.911L346.464,95.606a33.26,33.26,0,0,0-46.984,0l-23.296,23.305a8.532,8.532,0,1,0,12.066,12.066l23.296-23.305a16.1813,16.1813,0,0,1,22.852,0l23.296,23.305A8.532,8.532,0,0,0,369.76,118.911Z" transform="translate(0 -0.057)" style="fill: #fff"/>
  <path d="M107.727,427.51L84.44,404.223a8.5294,8.5294,0,0,0-12.066,0L2.502,474.094a8.5246,8.5246,0,0,0,0,12.066l23.287,23.287a8.5294,8.5294,0,0,0,12.066,0l69.871-69.871A8.5237,8.5237,0,0,0,107.727,427.51ZM31.823,491.348L20.602,480.127l57.805-57.805,11.221,11.221Z" transform="translate(0 -0.057)" style="fill: #fff"/>
  <path d="M148.482,421.699L90.251,363.468a8.5294,8.5294,0,0,0-12.066,0L66.964,374.689a25.6172,25.6172,0,0,0,0,36.198l34.099,34.099a25.6172,25.6172,0,0,0,36.19,0l11.23-11.221A8.5282,8.5282,0,0,0,148.482,421.699Zm-23.27,11.213a8.5546,8.5546,0,0,1-12.066,0L79.047,398.813a8.5391,8.5391,0,0,1,0-12.066l5.188-5.188L130.4,427.724Z" transform="translate(0 -0.057)" style="fill: #fff"/>
  <path d="M299.881,363.451l-151.39-151.39a8.7827,8.7827,0,0,0-12.066,0L73.842,274.644a68.3448,68.3448,0,0,0,0,96.529l66.935,66.935a68.2426,68.2426,0,0,0,96.53-.008l62.575-62.583A8.5254,8.5254,0,0,0,299.881,363.451Zm-74.65,62.592a51.1837,51.1837,0,0,1-72.388,0L85.908,359.108a51.2557,51.2557,0,0,1,0-72.388l56.55-56.55L281.773,369.494Z" transform="translate(0 -0.057)" style="fill: #fff"/>
  <path d="M247.494,182.962c-9.455-9.446-25.924-9.455-35.362,0L159.72,235.365a8.5294,8.5294,0,0,0,0,12.066l23.287,23.287a8.55,8.55,0,0,0,12.083,0l52.403-52.403A24.9992,24.9992,0,0,0,247.494,182.962Zm-12.091,23.279-46.37,46.37L177.812,241.39l46.37-46.37a8.1035,8.1035,0,0,1,11.221.009A7.9307,7.9307,0,0,1,235.403,206.241Z" transform="translate(0 -0.057)" style="fill: #fff"/>
  <path d="M329.005,264.473a25.0173,25.0173,0,0,0-35.362,0L241.24,316.876a8.5294,8.5294,0,0,0,0,12.066l23.287,23.287a8.5391,8.5391,0,0,0,12.066.008l52.412-52.403A25.04,25.04,0,0,0,329.005,264.473ZM316.93,287.76l-46.37,46.37-11.221-11.221,46.37-46.37a8.1122,8.1122,0,0,1,11.221,0A7.9519,7.9519,0,0,1,316.93,287.76Z" transform="translate(0 -0.057)" style="fill: #fff"/>
  <path d="M253.297,363.459L148.491,258.653a8.5228,8.5228,0,0,0-12.066,0L89.842,305.236a8.5228,8.5228,0,0,0,0,12.066L194.657,422.108a8.52,8.52,0,0,0,12.058,0l46.583-46.583A8.5237,8.5237,0,0,0,253.297,363.459ZM200.681,404.01l-92.74-92.74,34.517-34.517,92.74,92.74Z" transform="translate(0 -0.057)" style="fill: #fff"/>
  <path d="M195.074,351.82l-34.935-34.944a8.532,8.532,0,1,0-12.066,12.066l34.935,34.944A8.532,8.532,0,1,0,195.074,351.82Z" transform="translate(0 -0.057)" style="fill: #fff"/>
</svg>
