<svg xmlns="http://www.w3.org/2000/svg" viewBox="0 0 381.831 512">
  <title>step__02</title>
  <g>
    <rect x="182.237" y="147.525" width="190.915" height="355.797" style="fill: #a4c2f7"/>
    <rect x="8.678" y="147.525" width="190.915" height="355.797" style="fill: #fff"/>
    <rect x="34.712" y="147.525" width="312.407" height="355.797" style="fill: #e3e7f2"/>
    <g>
      <path d="M255.636,347.119h0a8.6682,8.6682,0,0,1-6.135-2.543l-86.593-86.602a8.6769,8.6769,0,1,1,12.271-12.271l80.457,80.466,80.83-80.822a8.6769,8.6769,0,1,1,12.271,12.271l-86.966,86.957a8.6708,8.6708,0,0,1-6.135,2.544h0Z" transform="translate(-65.085)" style="fill: #428dff"/>
      <path d="M256,347.119a8.6721,8.6721,0,0,1-8.678-8.678V8.678a8.678,8.678,0,0,1,17.356,0V338.441A8.6721,8.6721,0,0,1,256,347.119h0Z" transform="translate(-65.085)" style="fill: #428dff"/>
      <path d="M438.237,512H73.763a8.6721,8.6721,0,0,1-8.678-8.678V147.525a8.6721,8.6721,0,0,1,8.678-8.678H195.255a8.678,8.678,0,1,1,0,17.356H82.441V494.644H429.56V156.203H316.746a8.678,8.678,0,1,1,0-17.356H438.238a8.6721,8.6721,0,0,1,8.678,8.678V503.322A8.6721,8.6721,0,0,1,438.237,512Z" transform="translate(-65.085)" style="fill: #428dff"/>
    </g>
  </g>
</svg>
