<svg xmlns="http://www.w3.org/2000/svg" viewBox="0 0 286.054 286.045">
  <title>modal-close</title>
  <path d="M168.352,142.924l25.28-25.28a8.93,8.93,0,0,0,0-12.64l-12.64-12.649a8.9377,8.9377,0,0,0-12.64,0l-25.289,25.289L117.792,92.373a8.9513,8.9513,0,0,0-12.658-.018l-12.64,12.649a8.9323,8.9323,0,0,0,.018,12.649l25.271,25.271L92.556,168.15a8.93,8.93,0,0,0,0,12.64l12.64,12.649a8.9377,8.9377,0,0,0,12.64,0l25.226-25.226,25.405,25.414a8.9432,8.9432,0,0,0,12.658.009l12.64-12.64a8.9513,8.9513,0,0,0-.009-12.658ZM143.027,0.004A143.0225,143.0225,0,1,0,286.054,143.022,143.02,143.02,0,0,0,143.027.004Zm0,259.228a116.2095,116.2095,0,1,1,116.209-116.21A116.2057,116.2057,0,0,1,143.027,259.232Z" transform="translate(0 -0.004)" style="fill: #e2574c"/>
</svg>
